<svg
		xmlns="http://www.w3.org/2000/svg"
		width="512"
		height="512"
		enableBackground="new 0 0 512 512"
		viewBox="0 0 512 512"
>
	<path
			xmlns="http://www.w3.org/2000/svg"
			d="M497 482H376.08C455.331 439.551 512 355.351 512 256 512 115.03 396.95 0 256 0 115.03 0 0 115.05 0 256c0 140.97 115.05 256 256 256h241c8.284 0 15-6.716 15-15s-6.716-15-15-15zM30 256C30 131.383 131.383 30 256 30s226 101.383 226 226-101.383 226-226 226S30 380.617 30 256z"
			data-original="#000000"
	></path>
	<path
			xmlns="http://www.w3.org/2000/svg"
			d="M256 211c-24.813 0-45 20.187-45 45s20.187 45 45 45 45-20.187 45-45-20.187-45-45-45zm0 60c-8.271 0-15-6.729-15-15s6.729-15 15-15 15 6.729 15 15-6.729 15-15 15zM172.9 219.925l-39.75-29.813c-13.752-10.314-31.847-11.946-47.223-4.258C70.551 193.542 61 208.997 61 226.188v59.625c0 17.19 9.551 32.645 24.927 40.333 15.204 7.603 33.318 6.171 47.223-4.258l39.75-29.813c11.463-8.597 18.038-21.746 18.038-36.075s-6.574-27.478-18.038-36.075zm-18 48.15l-39.75 29.813c-4.673 3.504-10.582 4.037-15.806 1.425-5.225-2.612-8.344-7.659-8.344-13.5v-59.625c0-5.841 3.119-10.888 8.344-13.5 5.207-2.604 11.12-2.09 15.806 1.425l39.75 29.813c3.837 2.878 6.038 7.279 6.038 12.075 0 4.796-2.201 9.196-6.038 12.074zM280.552 393.197l-16.07-47.017c-4.634-13.559-15.108-23.874-28.735-28.302-13.629-4.427-28.165-2.238-39.883 6.007l-40.637 28.592c-14.06 9.892-21.203 26.597-18.643 43.596 2.561 16.999 14.307 30.858 30.656 36.17l56.707 18.425c16.431 5.34 34.062.939 46.062-11.243 12.063-12.248 16.103-29.961 10.543-46.228zm-31.917 25.177c-4.099 4.161-9.863 5.567-15.417 3.764l-56.707-18.426c-5.555-1.805-9.391-6.331-10.261-12.106-.87-5.776 1.463-11.231 6.24-14.593l40.638-28.592c3.922-2.76 8.787-3.493 13.349-2.011 4.562 1.482 8.067 4.935 9.618 9.473l16.07 47.017c1.889 5.527.569 11.312-3.53 15.474zM434.675 299.216c-7.922-15.256-23.53-24.537-40.707-24.311l-49.682.754c-14.327.217-27.374 6.991-35.796 18.583-8.422 11.592-10.833 26.094-6.612 39.788l14.635 47.483c5.063 16.428 18.743 28.384 35.701 31.202 16.914 2.809 33.744-4.035 43.874-17.979l35.047-48.237c10.104-13.908 11.461-32.025 3.54-47.283zm-27.812 29.65l-35.047 48.237c-3.434 4.726-8.924 6.973-14.686 6.018-5.762-.958-10.229-4.862-11.95-10.444l-14.635-47.482c-1.413-4.583-.606-9.438 2.213-13.318 2.819-3.88 7.186-6.147 11.982-6.22l49.683-.754c5.847-.07 10.933 2.954 13.625 8.138 2.692 5.183 2.249 11.099-1.185 15.825zM431.135 165.5l-35.047-48.237c-10.104-13.907-26.912-20.798-43.874-17.979-16.958 2.818-30.638 14.774-35.701 31.202l-14.635 47.483c-4.221 13.693-1.811 28.195 6.612 39.788 8.423 11.593 21.468 18.366 35.796 18.583l49.682.754c.236.004.469.005.705.005 16.908 0 32.19-9.269 40.002-24.316 7.921-15.257 6.564-33.375-3.54-47.283zm-23.086 33.46c-2.691 5.184-7.811 8.203-13.625 8.138l-49.682-.754c-4.796-.073-9.163-2.34-11.982-6.22-2.82-3.88-3.627-8.735-2.214-13.318l14.635-47.483c1.721-5.582 6.188-9.486 11.95-10.444 5.765-.959 11.253 1.293 14.686 6.018l35.047 48.237c3.434 4.726 3.876 10.642 1.185 15.826zM270.009 72.574c-12.064-12.248-29.714-16.557-46.062-11.243L167.24 79.757c-16.349 5.312-28.096 19.171-30.656 36.17-2.56 16.999 4.583 33.704 18.643 43.596l40.637 28.592c11.741 8.261 26.281 10.427 39.883 6.007 13.627-4.428 24.101-14.744 28.735-28.302l16.07-47.018c5.56-16.267 1.52-33.98-10.543-46.228zM252.164 109.1l-16.07 47.018c-1.551 4.538-5.057 7.991-9.618 9.473-4.56 1.482-9.426.749-13.349-2.011l-40.637-28.592c-4.778-3.362-7.11-8.817-6.24-14.593s4.706-10.302 10.261-12.107l56.707-18.425c5.544-1.8 11.31-.407 15.417 3.764 4.099 4.162 5.418 9.946 3.529 15.473z"
			data-original="#000000"
	></path>
</svg>