<svg id="es3mv45o4cxh1" xmlns="http://www.w3.org/2000/svg" xmlns:xlink="http://www.w3.org/1999/xlink" viewBox="0 0 512 512" shape-rendering="geometricPrecision" text-rendering="geometricPrecision"><g id="es3mv45o4cxh2" transform="matrix(1 0 0 1 -28.95000106999998 0.00000000000003)"><g id="es3mv45o4cxh3"><path id="es3mv45o4cxh4" d="M323.160000,55.683000C318.099000,48.993000,311.120000,44.292000,302.979000,42.112000L150.660000,1.290000C147.479000,0.440000,144.210000,0,140.930000,0C132.830000,0,124.790000,2.710000,118.300000,7.621000C111.610000,12.691000,106.920000,19.672000,104.730000,27.812000L63.910000,180.140000C63.059000,183.330000,62.630000,186.600000,62.630000,189.861000C62.630000,197.971000,65.330000,206.002000,70.250000,212.492000C75.310000,219.182000,82.290000,223.883000,90.430000,226.073000L242.750000,266.885000C245.930000,267.736000,249.200000,268.165000,252.479000,268.165000L252.490000,268.115000L252.490000,268.165000C260.590000,268.165000,268.620000,265.465000,275.109000,260.545000C281.799000,255.485000,286.490000,248.504000,288.679000,240.373000C289.749000,236.373000,287.369000,232.253000,283.379000,231.183000C282.739000,231.013000,282.089000,230.923000,281.429000,230.923000C278.049000,230.923000,275.069000,233.213000,274.189000,236.483000C271.569000,246.303000,262.639000,253.164000,252.479000,253.174000C250.509000,253.174000,248.549000,252.904000,246.639000,252.394000L94.310000,211.582000C84.491000,208.962000,77.630000,200.032000,77.630000,189.861000C77.630000,187.901000,77.890000,185.941000,78.400000,184.021000L119.220000,31.692000C121.830000,21.872000,130.760000,15.011000,140.930000,15.001000C142.890000,15.001000,144.860000,15.261000,146.780000,15.781000L299.100000,56.593000C308.911000,59.213000,315.770000,68.144000,315.780000,78.314000C315.780000,80.274000,315.520000,82.244000,315.010000,84.154000L281.960000,207.502000C281.439000,209.442000,281.700000,211.462000,282.710000,213.192000C283.710000,214.932000,285.330000,216.172000,287.260000,216.692000C287.900000,216.862000,288.550000,216.952000,289.210000,216.952000C292.590000,216.952000,295.569000,214.662000,296.450000,211.392000C296.450000,211.382000,296.450000,211.382000,296.450000,211.372000L329.500000,88.035000C330.350000,84.855000,330.779000,81.584000,330.779000,78.314000C330.779000,70.204000,328.080000,62.173000,323.160000,55.683000Z" fill="rgb(0,0,0)" stroke="none" stroke-width="1"/></g><g id="es3mv45o4cxh5"><g id="es3mv45o4cxh6"><path id="es3mv45o4cxh7" d="M236.291000,160.225000C220.312000,155.946000,203.829000,165.461000,199.548000,181.440000C195.267000,197.419000,204.783000,213.902000,220.761000,218.184000C223.346000,218.876000,225.969000,219.219000,228.574000,219.219000C233.772000,219.219000,238.903000,217.856000,243.525000,215.187000C250.465000,211.180000,255.429000,204.710000,257.503000,196.970000C261.784000,180.991000,252.269000,164.507000,236.291000,160.225000ZM243.015000,193.087000C241.978000,196.957000,239.495000,200.192000,236.026000,202.195000C232.555000,204.198000,228.513000,204.729000,224.644000,203.693000C216.655000,201.552000,211.897000,193.311000,214.037000,185.321000C215.831000,178.627000,221.908000,174.201000,228.531000,174.201000C229.812000,174.201000,231.114000,174.367000,232.410000,174.714000L232.409000,174.714000C240.396000,176.855000,245.155000,185.098000,243.015000,193.087000Z" fill="rgb(0,0,0)" stroke="none" stroke-width="1"/></g></g><g id="es3mv45o4cxh8"><g id="es3mv45o4cxh9"><path id="es3mv45o4cxh10" d="M149.357000,136.930000C141.613000,134.856000,133.531000,135.920000,126.592000,139.927000C119.652000,143.934000,114.688000,150.404000,112.614000,158.144000C110.540000,165.885000,111.603000,173.970000,115.610000,180.910000C119.617000,187.850000,126.086000,192.814000,133.826000,194.889000C136.418000,195.583000,139.019000,195.914000,141.584000,195.914000C154.827000,195.914000,166.981000,187.061000,170.569000,173.673000C174.852000,157.695000,165.335000,141.212000,149.357000,136.930000ZM156.082000,169.792000C153.940000,177.781000,145.696000,182.541000,137.710000,180.400000C133.840000,179.363000,130.606000,176.881000,128.602000,173.411000C126.599000,169.941000,126.067000,165.898000,127.104000,162.028000C128.141000,158.158000,130.624000,154.923000,134.093000,152.920000C136.405000,151.585000,138.969000,150.904000,141.569000,150.904000C142.872000,150.904000,144.183000,151.075000,145.475000,151.422000C153.464000,153.561000,158.222000,161.802000,156.082000,169.792000Z" fill="rgb(0,0,0)" stroke="none" stroke-width="1"/></g></g><g id="es3mv45o4cxh11"><g id="es3mv45o4cxh12"><path id="es3mv45o4cxh13" d="M259.584000,73.287000C243.609000,69.004000,227.123000,78.522000,222.842000,94.502000C218.561000,110.481000,228.077000,126.964000,244.055000,131.246000C246.646000,131.940000,249.249000,132.271000,251.813000,132.271000C265.056000,132.271000,277.209000,123.419000,280.797000,110.031000C285.078000,94.052000,275.562000,77.569000,259.584000,73.287000ZM266.309000,106.148000C264.167000,114.138000,255.923000,118.896000,247.938000,116.756000C239.949000,114.615000,235.191000,106.374000,237.331000,98.384000C239.125000,91.689000,245.201000,87.263000,251.824000,87.263000C253.105000,87.263000,254.407000,87.429000,255.702000,87.776000C263.690000,89.917000,268.448000,98.159000,266.309000,106.148000Z" fill="rgb(0,0,0)" stroke="none" stroke-width="1" stroke-linecap="round"/></g></g><g id="es3mv45o4cxh14"><g id="es3mv45o4cxh15"><path id="es3mv45o4cxh16" d="M190.867000,63.970000C186.860000,57.030000,180.390000,52.065000,172.650000,49.992000C156.675000,45.711000,140.190000,55.227000,135.908000,71.207000C131.627000,87.186000,141.143000,103.669000,157.121000,107.951000C159.706000,108.643000,162.329000,108.986000,164.934000,108.986000C170.132000,108.986000,175.263000,107.623000,179.885000,104.954000C186.826000,100.946000,191.790000,94.477000,193.863000,86.736000C195.937000,78.995000,194.874000,70.910000,190.867000,63.970000ZM179.375000,82.853000C178.338000,86.724000,175.855000,89.959000,172.386000,91.962000C168.915000,93.965000,164.873000,94.497000,161.004000,93.460000C153.015000,91.319000,148.257000,83.078000,150.397000,75.088000C152.191000,68.394000,158.267000,63.968000,164.890000,63.968000C166.171000,63.968000,167.473000,64.134000,168.768000,64.481000C168.768000,64.481000,168.768000,64.481000,168.769000,64.481000C172.639000,65.518000,175.873000,68,177.877000,71.470000C179.880000,74.940000,180.412000,78.982000,179.375000,82.853000Z" fill="rgb(0,0,0)" stroke="none" stroke-width="1"/></g></g></g><g id="es3mv45o4cxh17" transform="matrix(1 0 0 1 17.30436707000001 -0.00001526000005)"><g id="es3mv45o4cxh18"><path id="es3mv45o4cxh19" d="M448.090000,423.975000C448.080000,423.975000,448.080000,423.965000,448.080000,423.965000C447.200000,420.695000,444.229000,418.415000,440.840000,418.415000C440.190000,418.415000,439.529000,418.505000,438.900000,418.675000C436.961000,419.185000,435.350000,420.435000,434.350000,422.165000C433.340000,423.905000,433.080000,425.925000,433.600000,427.855000C434.110000,429.775000,434.371000,431.735000,434.371000,433.695000C434.360000,443.866000,427.501000,452.796000,417.690000,455.416000L265.360000,496.228000C263.451000,496.738000,261.480000,496.998000,259.520000,497.008000C249.350000,496.998000,240.420000,490.137000,237.810000,480.317000L196.990000,327.989000C196.479000,326.069000,196.219000,324.108000,196.219000,322.148000C196.219000,311.977000,203.079000,303.047000,212.899000,300.427000L365.219000,259.615000C367.129000,259.105000,369.099000,258.845000,371.059000,258.835000C381.229000,258.845000,390.160000,265.706000,392.779000,275.526000L425.830000,398.873000C426.710000,402.153000,429.689000,404.433000,433.069000,404.433000C433.719000,404.433000,434.380000,404.353000,435.009000,404.183000C439.009000,403.113000,441.389000,398.983000,440.319000,394.993000C440.319000,394.993000,440.319000,394.983000,440.309000,394.983000L407.269000,271.646000C405.080000,263.506000,400.389000,256.525000,393.700000,251.465000C387.210000,246.545000,379.179000,243.834000,371.059000,243.834000C367.779000,243.834000,364.509000,244.274000,361.339000,245.124000L209.019000,285.936000C200.879000,288.126000,193.899000,292.827000,188.839000,299.517000C183.919000,306.008000,181.219000,314.048000,181.219000,322.148000C181.219000,325.428000,181.649000,328.699000,182.509000,331.879000L223.319000,484.208000C225.509000,492.338000,230.200000,499.319000,236.889000,504.389000C243.379000,509.299000,251.410000,512,259.509000,512L259.519000,512C262.790000,512,266.059000,511.570000,269.240000,510.720000L421.569000,469.908000C429.710000,467.718000,436.689000,463.018000,441.750000,456.328000C446.660000,449.837000,449.370000,441.807000,449.370000,433.696000C449.370000,430.425000,448.939000,427.155000,448.090000,423.975000Z" fill="rgb(0,0,0)" stroke="none" stroke-width="1"/></g><g id="es3mv45o4cxh20"><g id="es3mv45o4cxh21"><path id="es3mv45o4cxh22" d="M315.294000,347.920000C298.752000,347.920000,285.294000,361.379000,285.294000,377.922000C285.294000,394.465000,298.752000,407.924000,315.294000,407.924000C331.836000,407.924000,345.294000,394.465000,345.294000,377.922000C345.294000,361.379000,331.836000,347.920000,315.294000,347.920000ZM315.294000,392.923000C307.023000,392.923000,300.294000,386.194000,300.294000,377.922000C300.294000,369.651000,307.023000,362.921000,315.294000,362.921000C323.565000,362.921000,330.294000,369.650000,330.294000,377.922000C330.294000,386.193000,323.565000,392.923000,315.294000,392.923000Z" fill="rgb(0,0,0)" stroke="none" stroke-width="1"/></g></g><g id="es3mv45o4cxh23"><g id="es3mv45o4cxh24"><path id="es3mv45o4cxh25" d="M312.452000,425.274000C308.170000,409.295000,291.691000,399.777000,275.709000,404.060000C259.731000,408.342000,250.216000,424.825000,254.497000,440.804000C256.570000,448.545000,261.534000,455.014000,268.475000,459.021000C273.098000,461.691000,278.227000,463.054000,283.426000,463.054000C286.031000,463.054000,288.655000,462.711000,291.239000,462.019000C307.217000,457.737000,316.733000,441.254000,312.452000,425.274000ZM287.356000,447.529000C283.484000,448.566000,279.444000,448.033000,275.974000,446.030000C272.504000,444.026000,270.022000,440.792000,268.985000,436.922000C266.845000,428.932000,271.603000,420.691000,279.591000,418.549000C287.575000,416.409000,295.821000,421.166000,297.963000,429.156000C300.104000,437.147000,295.346000,445.388000,287.356000,447.529000Z" fill="rgb(0,0,0)" stroke="none" stroke-width="1"/></g></g><g id="es3mv45o4cxh26"><g id="es3mv45o4cxh27"><path id="es3mv45o4cxh28" d="M376.092000,315.042000C371.810000,299.063000,355.329000,289.547000,339.350000,293.827000C331.610000,295.901000,325.140000,300.866000,321.133000,307.806000C317.126000,314.746000,316.063000,322.831000,318.137000,330.571000C320.210000,338.312000,325.174000,344.782000,332.115000,348.789000C336.738000,351.458000,341.867000,352.821000,347.066000,352.821000C349.671000,352.821000,352.295000,352.478000,354.879000,351.786000C370.857000,347.504000,380.373000,331.021000,376.092000,315.042000ZM350.996000,337.295000C347.125000,338.333000,343.082000,337.798000,339.614000,335.797000C336.145000,333.794000,333.662000,330.559000,332.625000,326.688000C331.588000,322.818000,332.120000,318.775000,334.123000,315.305000C336.127000,311.835000,339.361000,309.353000,343.232000,308.316000C344.527000,307.969000,345.829000,307.803000,347.110000,307.803000C353.732000,307.803000,359.809000,312.230000,361.603000,318.923000C363.743000,326.913000,358.985000,335.154000,350.996000,337.295000Z" transform="matrix(1 0 0 1 -1.80715404999995 2)" fill="rgb(0,0,0)" stroke="none" stroke-width="1"/></g></g></g></svg>