<svg
        xmlns="http://www.w3.org/2000/svg"
        width="512"
        height="512"
        enableBackground="new 0 0 512 512"
        viewBox="0 0 512 512"
>
    <g xmlns="http://www.w3.org/2000/svg">
        <path
                d="M467 0H225c-24.813 0-45 20.188-45 45v136H45c-24.813 0-45 20.188-45 45v241c0 24.813 20.188 45 45 45h240c24.813 0 45-20.188 45-45V331h137c24.813 0 45-20.188 45-45V45c0-24.813-20.188-45-45-45zM300 467c0 8.27-6.73 15-15 15H45c-8.27 0-15-6.73-15-15V226c0-8.27 6.73-15 15-15h240c8.27 0 15 6.73 15 15zm182-181c0 8.27-6.73 15-15 15H330v-75c0-24.813-20.188-45-45-45h-75V45c0-8.27 6.73-15 15-15h242c8.27 0 15 6.73 15 15zm0 0"
                data-original="#000000"
        ></path>
        <path
                d="M105 241c-24.813 0-45 20.188-45 45 0 24.813 20.188 45 45 45 24.813 0 45-20.188 45-45 0-24.813-20.188-45-45-45zm0 60c-8.27 0-15-6.73-15-15s6.73-15 15-15 15 6.73 15 15-6.73 15-15 15zm0 0M105 361c-24.813 0-45 20.188-45 45 0 24.813 20.188 45 45 45 24.813 0 45-20.188 45-45 0-24.813-20.188-45-45-45zm0 60c-8.27 0-15-6.73-15-15s6.73-15 15-15 15 6.73 15 15-6.73 15-15 15zm0 0M225 241c-24.813 0-45 20.188-45 45 0 24.813 20.188 45 45 45 24.813 0 45-20.188 45-45 0-24.813-20.188-45-45-45zm0 60c-8.27 0-15-6.73-15-15s6.73-15 15-15 15 6.73 15 15-6.73 15-15 15zm0 0M285 60c-24.813 0-45 20.188-45 45 0 24.813 20.188 45 45 45 24.813 0 45-20.188 45-45 0-24.813-20.188-45-45-45zm0 60c-8.27 0-15-6.73-15-15s6.73-15 15-15 15 6.73 15 15-6.73 15-15 15zm0 0M406 181c-24.813 0-45 20.188-45 45 0 24.813 20.188 45 45 45 24.813 0 45-20.188 45-45 0-24.813-20.188-45-45-45zm0 60c-8.27 0-15-6.73-15-15s6.73-15 15-15 15 6.73 15 15-6.73 15-15 15zm0 0M225 361c-24.813 0-45 20.188-45 45 0 24.813 20.188 45 45 45 24.813 0 45-20.188 45-45 0-24.813-20.188-45-45-45zm0 60c-8.27 0-15-6.73-15-15s6.73-15 15-15 15 6.73 15 15-6.73 15-15 15zm0 0"
                data-original="#000000"
        ></path>
    </g>
</svg>