<?xml version="1.0" encoding="UTF-8"?>
<svg width="185px" height="170px" stroke="#00a2ff"  viewBox="163 171 185 170" xmlns="http://www.w3.org/2000/svg" xmlns:xlink="http://www.w3.org/1999/xlink" version="1.1">
 <!-- Generated by Pixelmator Pro 2.1.5 -->
 <path id="Фигура" d="M256.101 196.074 C272.981 187.314 283.421 181.885 290.191 178.358 302.5 171.945 302.5 171.945 305.601 175.467 307.306 177.403 311.54 182.598 315.008 187.01 318.477 191.422 322.481 196.297 323.907 197.844 325.333 199.39 326.95 201.34 327.5 202.178 328.05 203.016 329.85 205.466 331.5 207.623 333.15 209.78 337.124 214.779 340.331 218.733 343.538 222.687 346.013 226.614 345.831 227.46 345.649 228.306 333.705 243.736 319.288 261.749 304.872 279.762 285.072 304.371 275.288 316.436 265.505 328.501 256.966 338.542 256.314 338.748 255.661 338.955 252.428 335.834 249.129 331.812 245.829 327.79 234.34 313.576 223.598 300.223 212.855 286.871 196.064 266.039 186.283 253.929 176.502 241.819 167.649 230.839 166.61 229.529 164.719 227.147 164.719 227.147 171.274 218.823 174.88 214.246 183.3 203.75 189.987 195.5 196.673 187.25 203.817 178.514 205.861 176.086 209.579 171.672 209.579 171.672 232.84 183.873 L256.101 196.074 Z" fill="#00a2ff" fill-opacity="0" stroke-width="10" stroke-opacity="1" stroke-linejoin="round" stroke-linecap="round"/>
</svg>
