<svg
        xmlns="http://www.w3.org/2000/svg"
        width="512"
        height="512"
        enableBackground="new 0 0 512 512"
        viewBox="0 0 512 512"
>
    <g xmlns="http://www.w3.org/2000/svg">
        <path
                d="M477.331 178.448h-7.854v-43.831c0-14.355-11.688-26.034-26.054-26.034H286.292c-14.366 0-26.053 11.679-26.053 26.084l.001.154.002 53.962c0 5.522 4.477 10 10 10h17.854c8.088 0 14.669 6.567 14.669 14.639s-6.581 14.639-14.669 14.639h-17.854c-5.523 0-10 4.478-10 10v53.78l.001.174a25.712 25.712 0 001.073 6.926 26.002 26.002 0 00-7.128-.994h-53.896c-5.523 0-10 4.478-10 10v17.811c0 8.071-6.581 14.639-14.669 14.639s-14.668-6.567-14.668-14.639v-17.811c0-5.522-4.477-10-10-10H97.05c-13.229.005-24.351 9.921-25.872 23.066-.044.382-.066.766-.066 1.149v160.665c0 .385.022.769.066 1.15C72.698 497.103 83.824 507 97.058 507h157.131a25.944 25.944 0 0016.294-5.733c4.4 3.381 9.891 5.398 15.81 5.398h157.131c14.366 0 26.054-11.679 26.054-26.034v-30.252c0-5.522-4.477-10-10-10s-10 4.478-10 10v30.252c0 3.327-2.716 6.034-6.054 6.034H286.292c-3.258 0-5.958-2.622-6.05-5.857v-43.673h7.854c19.117 0 34.669-15.539 34.669-34.639s-15.552-34.639-34.669-34.639h-7.854v-43.831c0-.121-.001-.241-.003-.361.014-3.34 2.724-6.052 6.053-6.052h43.896v7.81c0 19.101 15.552 34.64 34.669 34.64s34.669-15.539 34.669-34.64v-7.81h43.896c3.338 0 6.054 2.727 6.054 6.078v36.275c0 5.522 4.477 10 10 10s10-4.478 10-10v-36.275a25.964 25.964 0 00-5.551-16.074 25.932 25.932 0 005.551-16.061v-43.831h7.854c19.117 0 34.669-15.539 34.669-34.639s-15.551-34.638-34.668-34.638zM288.096 387.857c8.088 0 14.669 6.567 14.669 14.639s-6.581 14.639-14.669 14.639h-17.854c-5.523 0-10 4.478-10 10v53.831c0 3.327-2.716 6.034-6.054 6.034H97.058c-2.927 0-5.41-2.072-5.946-4.888V322.877a6.056 6.056 0 015.946-4.93h43.897v7.811c0 19.1 15.552 34.639 34.668 34.639 19.117 0 34.669-15.539 34.669-34.639v-7.811h43.898c3.298.001 5.988 2.665 6.051 5.962l.001 53.948c0 5.522 4.477 10 10 10zm189.235-160.131h-17.854c-5.523 0-10 4.478-10 10v53.831a6.062 6.062 0 01-6.054 6.057h-53.896c-5.523 0-10 4.478-10 10v17.81c0 8.072-6.581 14.64-14.669 14.64s-14.669-6.567-14.669-14.64v-17.81c0-5.522-4.477-10-10-10h-53.896c-3.258 0-5.958-2.632-6.05-5.88v-43.673h7.854c19.117 0 34.669-15.539 34.669-34.639s-15.552-34.639-34.669-34.639h-7.854v-43.831l-.003-.335c0-3.327 2.715-6.034 6.053-6.034h157.131c3.338 0 6.054 2.707 6.054 6.034v53.831c0 5.522 4.477 10 10 10h17.854c8.088 0 14.669 6.566 14.669 14.639-.001 8.071-6.582 14.639-14.67 14.639z"
                data-original="#000000"
        ></path>
        <path
                d="M459.48 415.359c-4.177 0-8.006-2.709-9.415-6.635-1.391-3.876-.194-8.328 2.946-10.991 3.276-2.778 8.095-3.136 11.745-.869 3.491 2.168 5.334 6.417 4.523 10.445-.928 4.613-5.083 8.05-9.799 8.05zM102.848 139.426c-2.427 0-4.783-.884-6.619-2.504l-20.67-18.252c-4.14-3.655-4.532-9.976-.877-14.115 3.656-4.139 9.976-4.531 14.115-.877l12.649 11.17 27.134-35.274c3.368-4.378 9.646-5.197 14.023-1.829 4.377 3.367 5.196 9.646 1.829 14.022l-33.658 43.756a9.999 9.999 0 01-7.926 3.903z"
                data-original="#000000"
        ></path>
        <path
                d="M104.512 256.479c-19.117 0-34.669-15.539-34.669-34.64v-7.81H25.946c-13.233 0-24.359-9.907-25.88-23.045A9.99 9.99 0 010 189.836V29.172c0-.385.022-.769.066-1.15C1.586 14.897 12.712 5 25.946 5h157.131c14.366 0 26.053 11.679 26.053 26.034v43.831h7.854c19.116 0 34.668 15.539 34.668 34.639s-15.552 34.639-34.668 34.639h-7.854v43.831c0 14.367-11.688 26.057-26.053 26.057H139.18v7.81c0 19.099-15.552 34.638-34.668 34.638zM20 189.121a6.047 6.047 0 005.946 4.909h53.896c5.523 0 10 4.478 10 10v17.81c0 8.072 6.581 14.64 14.669 14.64s14.668-6.567 14.668-14.64v-17.81c0-5.522 4.477-10 10-10h53.897a6.062 6.062 0 006.053-6.057v-53.831c0-5.522 4.477-10 10-10h17.854c8.088 0 14.668-6.566 14.668-14.639 0-8.071-6.58-14.639-14.668-14.639H199.13c-5.523 0-10-4.478-10-10v-53.83c0-3.327-2.715-6.034-6.053-6.034H25.946c-2.928 0-5.41 2.072-5.946 4.888z"
                data-original="#000000"
        ></path>
    </g>
</svg>