<svg
        xmlns="http://www.w3.org/2000/svg"
        width="512"
        height="512"
        enableBackground="new 0 0 512 512"
        viewBox="0 0 24 24"
>
    <path
            xmlns="http://www.w3.org/2000/svg"
            d="M16.5 24h-9a.5.5 0 01-.5-.5v-12a.5.5 0 01.5-.5h9a.5.5 0 01.5.5v12a.5.5 0 01-.5.5zM8 23h8V12H8z"
            data-original="#000000"
    ></path>
    <path
            xmlns="http://www.w3.org/2000/svg"
            d="M23.5 24h-7a.5.5 0 01-.5-.5v-4a.5.5 0 01.5-.5h7a.5.5 0 01.5.5v4a.5.5 0 01-.5.5zM17 23h6v-3h-6zM7.5 24h-7a.5.5 0 01-.5-.5v-6a.5.5 0 01.5-.5h7a.5.5 0 01.5.5v6a.5.5 0 01-.5.5zM1 23h6v-5H1zM12 20a.5.5 0 01-.5-.5V16a.5.5 0 010-1h.5a.5.5 0 01.5.5v4a.5.5 0 01-.5.5zM14.472 9a.498.498 0 01-.281-.087L12 7.422 9.809 8.913a.498.498 0 01-.766-.536l.682-2.69-2.05-1.751a.5.5 0 01.296-.879l2.612-.148.947-2.58c.145-.395.794-.395.938 0l.947 2.58 2.612.148a.5.5 0 01.296.879l-2.049 1.751.682 2.69a.5.5 0 01-.484.623zM12 6.317c.098 0 .196.029.281.087l1.383.94-.435-1.714a.502.502 0 01.16-.503l1.339-1.144-1.697-.097a.5.5 0 01-.441-.327L12 1.952l-.59 1.608a.498.498 0 01-.441.327l-1.698.097 1.339 1.144a.498.498 0 01.16.503l-.435 1.714 1.383-.94A.504.504 0 0112 6.317z"
            data-original="#000000"
    ></path>
</svg>